<svg id="Camada_1" data-name="Camada 1" xmlns="http://www.w3.org/2000/svg" viewBox="0 0 29.1 34"><defs><style>.cls-1{fill:#ff003a;}</style></defs><path class="cls-1" d="M28.26,24.94a13.94,13.94,0,0,0,.84-4.2H27.7c0-.2,0-.4,0-.6V4.94A4.94,4.94,0,0,0,22.77,0h-.1a4.94,4.94,0,0,0-4.93,4.94v6.65H10V10.54A5,5,0,0,0,5,5.59H5a5,5,0,0,0-5,4.95V20c0,.25,0,.5,0,.75h1.4a14,14,0,0,0,.88,4.2H.12a13.83,13.83,0,0,0,1.18,2.8H3.73A13.84,13.84,0,0,0,15.15,34h.11a13.86,13.86,0,0,0,11.58-6.26h-1.3a13.74,13.74,0,0,0,1.15-2.8Zm-5,0a10.86,10.86,0,0,1-1.63,2.8h1a10.57,10.57,0,0,1-7.39,3h-.08a10.49,10.49,0,0,1-7.26-3H5.19a11.19,11.19,0,0,1-1.64-2.8h2.3a10.7,10.7,0,0,1-1.17-4.2H3.28q0-.37,0-.75V10.54A1.7,1.7,0,0,1,5,8.84H5a1.71,1.71,0,0,1,1.71,1.7v8.17a1.63,1.63,0,1,0,3.25,0V14.84h2v3.87a1.63,1.63,0,1,0,3.25,0V14.84h2.53v3.87a1.63,1.63,0,1,0,3.25,0V4.94a1.69,1.69,0,0,1,1.68-1.69h.1a1.69,1.69,0,0,1,1.69,1.69v15.2c0,.2,0,.4,0,.6h1.4a10.67,10.67,0,0,1-1.14,4.2Z"/></svg>